<svg enable-background="new 0 0 500 500" viewBox="0 0 500 500" xmlns="http://www.w3.org/2000/svg"><path d="m94.7 362.1 2.2-3.1 104.5-198.3.2-2.1-46.1-86.6c-3.9-7.3-14.7-5.4-16 2.7z" fill="#ffc24a"/><path d="m235.2 224.1 34.3-35.1-34.3-65.5c-3.3-6.2-12.4-6.2-15.6 0l-18.3 35v3z" fill="#f4bd62"/><path d="m94.7 362.1 1-1 3.6-1.5 133.8-133.2 1.6-4.6-33.3-63.6z" fill="#f6820c"/><path d="m239.5 429.3 121-67.5-34.6-212.9c-1.1-6.7-9.3-9.3-14-4.5l-217.2 217.7 120.4 67.2c7.5 4.3 16.8 4.3 24.4 0" fill="#fde068"/><path d="m359.5 361.2-34.3-211.2c-1.1-6.6-7.9-9.3-12.6-4.6l-216.6 216.3 119 66.5c7.5 4.2 16.7 4.2 24.3 0z" fill="#fcca3f"/><path d="m239.5 427.3c-7.6 4.2-16.9 4.2-24.5 0l-119.4-66.2-1 1 120.4 67.2c7.6 4.2 16.9 4.2 24.5 0l121-67.5-.3-1.8z" fill="#eeab37"/><g clip-rule="evenodd" fill-rule="evenodd"><ellipse cx="326.7" cy="347.6" fill="#757575" rx="78.7" ry="78.7" transform="matrix(.1598 -.9872 .9872 .1598 -68.6506 614.5333)"/><g fill="#fff"><path d="m291.1 326.2 35-17.7 36 17.7v18l-36-17.8-35 17.8z"/><path d="m291.1 356.9 35-17.8 36 17.8v17.9l-36-17.8-35 17.8z"/><path d="m326.2 374.4 10.2-4.8 18 8.3-28.2 13.5z"/></g></g></svg>