<svg viewBox="0 0 320 320" xmlns="http://www.w3.org/2000/svg"><g fill="#606"><path d="m7.1 180.6v117.1c0 8.4 6.8 15.3 15.3 15.3h119.6c-1-73.2-61.1-132.3-134.9-132.4z"/><path d="m7.1 84.1v49.8c99 .9 179.4 80.7 180.4 179.1h51.7c-1-126.4-104.7-228.8-232.1-228.9z"/><path d="m312.9 297.6v-104.1c-34.8-86.3-105.6-154.6-193.9-186.4h-96.6c-8.4 0-15.3 6.8-15.3 15.3v15c152.6.9 276.6 124 277.6 275.6h13c8.4-.1 15.2-6.9 15.2-15.4z"/><path d="m272.6 49.8c14.5 14.4 28.6 31.7 40.4 47.8v-75.2c0-8.4-6.8-15.3-15.3-15.3h-77.3c18 12.6 36.2 26.8 52.2 42.7z"/></g></svg>