<svg height="48" viewBox="0 0 48 48" width="48" xmlns="http://www.w3.org/2000/svg"><path d="m37.64 9.64c-6.57-6.57-18.33-5.45-26.26 2.48-5.98 5.98-8.09 14.12-5.97 20.58 1.12 3.41 5.41 4.48 7.95 1.94l3.7-3.7c.6-.74 1.6-1.15 2.68-.83.81.23 1.47.92 1.68 1.74.24.94-.06 1.83-.65 2.42l-.51.5c-3.07 3.08-.22 8.35 4.01 7.34 2.44-.59 4.87-1.64 7.13-3.14.17-.11.34-.23.5-.34.16-.12.33-.23.49-.36.96-.7 1.88-1.49 2.76-2.37.19-.19.37-.38.54-.57.19-.18.36-.37.52-.57.18-.19.35-.39.52-.6 6.47-7.84 7.01-18.42.91-24.52zm-12.64 19.36c-1.38 0-2.5-1.12-2.5-2.5s1.12-2.5 2.5-2.5 2.5 1.12 2.5 2.5-1.12 2.5-2.5 2.5z" fill="#4fc3f7"/><path d="m32 21-2.091-3.486c-.4-.667.08-1.514.857-1.514h6.468c.777 0 1.257.848.857 1.514l-2.091 3.486-2 1z" fill="#ffcc80"/><circle cx="34" cy="42.5" fill="#b85416" r="1.5"/><path d="m32 24 .5 18.5h3l.5-18.5-2-1z" fill="#b85416"/><circle cx="24" cy="13" fill="#ffb300" r="3"/><circle cx="15" cy="16.5" fill="#388e3c" r="3"/><circle cx="11" cy="25" fill="#e53935" r="3"/><path d="m32 21h4v3h-4z" fill="#cfd8dc"/></svg>