<svg height="420.00031" viewBox="0 0 38.000089 42.000031" width="380.00089" xmlns="http://www.w3.org/2000/svg"><g clip-rule="evenodd" fill-rule="evenodd"><path d="m17.903.28628166c.679-.381 1.515-.381 2.193 0 3.355 1.88300004 13.451 7.55100004 16.807 9.43400004.679.3800003 1.097 1.0840003 1.097 1.8460003v18.867c0 .762-.418 1.466-1.097 1.847-3.355 1.883-13.451 7.551-16.807 9.434-.679.381-1.515.381-2.193 0-3.355-1.883-13.451-7.551-16.807-9.434-.678-.381-1.096-1.084-1.096-1.846 0-3.766 0-15.101 0-18.867 0-.762.418-1.466 1.097-1.8470003 3.354-1.883 13.452-7.551 16.806-9.43400004z" fill="#004482"/><path d="m.304 31.404282c-.266-.356-.304-.694-.304-1.149 0-3.744 0-15.014 0-18.759 0-.758.417-1.458 1.094-1.8360003 3.343-1.872 13.405-7.507 16.748-9.38000004.677-.379 1.594-.371 2.271.008 3.343 1.87200004 13.371 7.45900004 16.714 9.33100004.27.152.476.335.66.5760003z" fill="#659ad2"/><path d="m19 7.0002817c7.727 0 14 6.2730003 14 14.0000003s-6.273 14-14 14-14-6.273-14-14 6.273-14.0000003 14-14.0000003zm0 7.0000003c3.863 0 7 3.136 7 7 0 3.863-3.137 7-7 7s-7-3.137-7-7c0-3.864 3.136-7 7-7z" fill="#fff"/><path d="m37.485 10.205282c.516.483.506 1.211.506 1.784 0 3.795-.032 14.589.009 18.384.004.396-.127.813-.323 1.127l-19.084-10.5z" fill="#00599c"/></g></svg>