<svg fill="none" height="158" viewBox="0 0 117 158" width="117" xmlns="http://www.w3.org/2000/svg" xmlns:xlink="http://www.w3.org/1999/xlink"><mask id="a" height="55" maskUnits="userSpaceOnUse" width="55" x="0" y="0"><path d="m27.5964 54.37-26.842684-26.6439 26.643884-26.842692 26.8427 26.643892z" fill="#fff"/></mask><mask id="b" height="32" maskUnits="userSpaceOnUse" width="33" x="84" y="11"><path d="m100.639 42.9971-15.7446-15.6281 15.6276-15.7446 15.745 15.628z" fill="#fff"/></mask><path d="m43.473 136.453c2.8651 3.812 6.5884 6.895 10.868 8.998 4.6283 2.293 9.7355 3.452 14.9 3.382 4.1758.109 8.3326-.6 12.236-2.087 3.1219-1.227 5.909-3.175 8.133-5.686 2.0871-2.446 3.6107-5.321 4.463-8.422.9292-3.351 1.3893-6.815 1.367-10.292v-12.092h-.287c-2.7067 4.29-6.6108 7.693-11.23 9.789-4.4044 1.917-9.1594 2.898-13.963 2.879-4.7069.035-9.3759-.845-13.747-2.591-4.1388-1.643-7.9257-4.062-11.157-7.126-3.2064-3.078-5.7533-6.777-7.486-10.87-1.8438-4.3213-2.7749-8.977-2.735-13.675-.0398-4.6844.8409-9.331 2.592-13.676 1.6552-4.1107 4.0726-7.8714 7.125-11.084 3.052-3.1862 6.7273-5.71 10.797-7.414 4.3547-1.8105 9.0322-2.7166 13.748-2.663 2.1473.0124 4.2898.2048 6.405.575 2.3261.4064 4.5968 1.0829 6.766 2.016 5.15 2.2321 9.6017 5.8135 12.885 10.366h.287v-11.23h9.502v66.796c-.032 3.925-.491 7.834-1.368 11.66-.917 4.136-2.736 8.019-5.326 11.372-2.9472 3.699-6.7187 6.657-11.013 8.639-4.7033 2.302-10.8457 3.453-18.427 3.453-6.1585.105-12.276-1.02-17.994-3.31-5.4706-2.344-10.3779-5.828-14.394-10.22zm1.727-48.08c-.0238 3.4308.6371 6.8318 1.944 10.004 1.2459 3.044 3.0522 5.827 5.325 8.205 2.2596 2.357 4.9466 4.262 7.918 5.615 3.0953 1.407 6.4611 2.119 9.861 2.087 6.7333.024 13.2215-2.524 18.138-7.125 2.4147-2.278 4.3059-5.054 5.543-8.135 1.3333-3.3868 1.9463-7.0142 1.8-10.651.0241-3.4116-.561-6.8001-1.728-10.006-1.1089-3.0469-2.823-5.838-5.039-8.205-2.2777-2.3996-5.0205-4.3098-8.061-5.614-3.3666-1.4309-6.9953-2.1422-10.653-2.088-3.3999-.0312-6.7655.6815-9.861 2.088-2.9704 1.3541-5.6572 3.2591-7.918 5.614-2.2721 2.3785-4.0786 5.1614-5.326 8.205-1.3063 3.173-1.9668 6.5747-1.943 10.006z" fill="#244b5a"/><g mask="url(#a)"><path d="m1.22601.882999-.473004 4.188001v-4.188001z" fill="#75caca"/><path d="m1.85201.882999-1.099004 9.722001v-5.534l.473004-4.188001z" fill="#74cbca"/><path d="m2.47701.882999-1.724004 15.255001v-5.533l1.099004-9.722001z" fill="#74cbca"/><path d="m3.10201.882999-2.349004 20.789001v-5.534l1.724004-15.255001z" fill="#73cbca"/><path d="m3.72701.882999-2.974004 26.323001v-5.534l2.349004-20.789001z" fill="#73cbca"/><path d="m4.35301.882999-3.600004 31.857001v-5.534l2.974004-26.323001zm.625 0-4.225004 37.390001v-5.533l3.600004-31.857001z" fill="#72c9c9"/><path d="m5.60301.882999-4.850004 42.924001v-5.534l4.225004-37.390001z" fill="#70caca"/><path d="m6.22801.882999-5.475004 48.458001v-5.534l4.850004-42.924001z" fill="#70caca"/><path d="m6.85401.882999-6.040004 53.454001-.061-.007v-4.989l5.475004-48.458001z" fill="#6fcac8"/><path d="m7.47901.882999-6.044 53.487001h-.331l-.289999-.033 6.039999-53.454001z" fill="#6ec8c8"/><path d="m8.10401.882999-6.043 53.487001h-.626l6.044-53.487001z" fill="#6ec8c8"/><path d="m8.73.882999-6.044 53.487001h-.625l6.043-53.487001z" fill="#6cc9c9"/><path d="m9.355.882999-6.044 53.487001h-.625l6.044-53.487001z" fill="#6dc9c8"/><path d="m9.98.882999-6.043 53.487001h-.626l6.044-53.487001z" fill="#69c7c8"/><path d="m10.605.882999-6.04299 53.487001h-.625l6.043-53.487001z" fill="#69c7c8"/><path d="m11.231.882999-6.04399 53.487001h-.625l6.04299-53.487001z" fill="#69c8c7"/><path d="m11.856.882999-6.04399 53.487001h-.625l6.04399-53.487001z" fill="#68c8c7"/><path d="m12.481.882999-6.04299 53.487001h-.626l6.04399-53.487001z" fill="#67c7c7"/><path d="m13.106.882999-6.043 53.487001h-.625l6.043-53.487001z" fill="#65c7c7"/><path d="m13.732.882999-6.044 53.487001h-.625l6.043-53.487001z" fill="#64c7c7"/><path d="m14.357.882999-6.044 53.487001h-.625l6.044-53.487001z" fill="#63c6c6"/><path d="m14.982.882999-6.043 53.487001h-.626l6.044-53.487001z" fill="#60c6c6"/><path d="m15.607.882999-6.04299 53.487001h-.625l6.04299-53.487001z" fill="#60c6c5"/><path d="m16.233.882999-6.044 53.487001h-.62499l6.04299-53.487001z" fill="#5fc6c5"/><path d="m16.858.882999-6.044 53.487001h-.625l6.044-53.487001z" fill="#5cc5c4"/><path d="m17.483.882999-6.043 53.487001h-.626l6.044-53.487001z" fill="#5ac5c4"/><path d="m18.108.882999-6.043 53.487001h-.625l6.043-53.487001z" fill="#5ac5c4"/><path d="m18.734.882999-6.044 53.487001h-.625l6.043-53.487001z" fill="#57c4c4"/><path d="m19.359.882999-6.044 53.487001h-.625l6.044-53.487001z" fill="#58c4c3"/><path d="m19.984.882999-6.043 53.487001h-.626l6.044-53.487001z" fill="#55c4c3"/><path d="m20.609.882999-6.043 53.487001h-.625l6.043-53.487001z" fill="#53c3c2"/><path d="m21.235.882999-6.044 53.487001h-.625l6.043-53.487001z" fill="#52c3c2"/><path d="m21.86.882999-6.044 53.487001h-.625l6.044-53.487001z" fill="#50c3c2"/><path d="m22.485.882999-6.043 53.487001h-.626l6.044-53.487001z" fill="#50c1c0"/><path d="m23.111.882999-6.044 53.487001h-.625l6.043-53.487001z" fill="#4bc2c0"/><path d="m23.736.882999-6.044 53.487001h-.625l6.044-53.487001z" fill="#4cc1c0"/><path d="m24.361.882999-6.044 53.487001h-.625l6.044-53.487001z" fill="#47c1be"/><path d="m24.986.882999-6.043 53.487001h-.626l6.044-53.487001z" fill="#46c0be"/><path d="m25.612.882999-6.044 53.487001h-.625l6.043-53.487001z" fill="#43c0be"/><path d="m26.237.882999-6.044 53.487001h-.625l6.044-53.487001z" fill="#40bfbd"/><path d="m26.862.882999-6.043 53.487001h-.626l6.044-53.487001z" fill="#3bbfbd"/><path d="m27.487.882999-6.043 53.487001h-.625l6.043-53.487001z" fill="#39bfbc"/><path d="m28.113.882999-6.044 53.487001h-.625l6.043-53.487001z" fill="#34bebd"/><path d="m28.738.882999-6.044 53.487001h-.625l6.044-53.487001z" fill="#32bebb"/><path d="m29.363.882999-6.043 53.487001h-.626l6.044-53.487001z" fill="#2dbdbb"/><path d="m29.988.882999-6.043 53.487001h-.625l6.043-53.487001z" fill="#24bcbb"/><path d="m30.614.882999-6.044 53.487001h-.625l6.043-53.487001z" fill="#21bcb9"/><path d="m31.239.882999-6.044 53.487001h-.625l6.044-53.487001z" fill="#18bbb9"/><path d="m31.864.882999-6.043 53.487001h-.626l6.044-53.487001z" fill="#0fbab9"/><path d="m32.489.882999-6.043 53.487001h-.625l6.043-53.487001z" fill="#03bbb8"/><path d="m33.115.882999-6.044 53.487001h-.625l6.043-53.487001z" fill="#06b8b6"/><path d="m33.74.882999-6.044 53.487001h-.625l6.044-53.487001z" fill="#06b8b6"/><path d="m34.365.882999-6.043 53.487001h-.626l6.044-53.487001z" fill="#03b7b5"/><path d="m34.99.882999-6.043 53.487001h-.625l6.043-53.487001z" fill="#04b7b4"/><path d="m35.616.882999-6.044 53.487001h-.625l6.043-53.487001z" fill="#00b6b5"/><path d="m36.241.882999-6.044 53.487001h-.625l6.044-53.487001z" fill="#03b6b4"/><path d="m36.866.882999-6.043 53.487001h-.626l6.044-53.487001z" fill="#05b6b2"/><path d="m37.491.882999-6.043 53.487001h-.625l6.043-53.487001z" fill="#01b5b1"/><path d="m38.117.882999-6.044 53.487001h-.625l6.043-53.487001z" fill="#01b5b1"/><path d="m38.742.882999-6.044 53.487001h-.625l6.044-53.487001z" fill="#00b4b1"/><path d="m39.367.882999-6.043 53.487001h-.626l6.044-53.487001z" fill="#00b3b0"/><path d="m39.993.882999-6.044 53.487001h-.625l6.043-53.487001z" fill="#00b3b0"/><path d="m40.618.882999-6.044 53.487001h-.625l6.044-53.487001z" fill="#00b2af"/><path d="m41.243.882999-6.044 53.487001h-.625l6.044-53.487001z" fill="#00b2ae"/><path d="m41.868.882999-6.043 53.487001h-.626l6.044-53.487001z" fill="#00b1ae"/><path d="m42.494.882999-6.044 53.487001h-.625l6.043-53.487001z" fill="#00b1ad"/><path d="m43.119.882999-6.044 53.487001h-.625l6.044-53.487001z" fill="#00b0ac"/><g fill="#00afac"><path d="m43.744.882999-6.043 53.487001h-.626l6.044-53.487001z"/><path d="m53.89.882999.35.039v53.448001h-16.539l6.043-53.487001z"/></g></g><g mask="url(#b)"><path d="m116.266 20.787-.427-9.164h.427z" fill="#75caca"/><path d="m116.266 30.416-.875-18.793h.448l.427 9.164z" fill="#74cbca"/><path d="m116.266 40.045-1.324-28.422h.449l.875 18.793z" fill="#74cbca"/><path d="m115.955 42.997-1.461-31.374h.448l1.324 28.422v2.952z" fill="#73cbca"/><path d="m115.506 42.997-1.461-31.374h.449l1.461 31.374zm-.448 0-1.461-31.374h.448l1.461 31.374z" fill="#72c9c9"/><path d="m114.609 42.997-1.461-31.374h.449l1.461 31.374z" fill="#70caca"/><path d="m114.161 42.997-1.461-31.374h.448l1.461 31.374z" fill="#6fcac8"/><path d="m113.713 42.997-1.462-31.374h.449l1.461 31.374z" fill="#6ec8c8"/><path d="m113.264 42.997-1.461-31.374h.448l1.462 31.374z" fill="#6ec8c8"/><path d="m112.816 42.997-1.462-31.374h.449l1.461 31.374z" fill="#6cc9c9"/><path d="m112.367 42.997-1.461-31.374h.448l1.462 31.374z" fill="#6dc9c8"/><path d="m111.919 42.997-1.462-31.374h.449l1.461 31.374z" fill="#69c7c8"/><path d="m111.47 42.997-1.461-31.374h.448l1.462 31.374z" fill="#69c7c8"/><path d="m111.022 42.997-1.462-31.374h.449l1.461 31.374z" fill="#69c8c7"/><path d="m110.573 42.997-1.461-31.374h.448l1.462 31.374z" fill="#68c8c7"/><path d="m110.125 42.997-1.462-31.374h.449l1.461 31.374z" fill="#67c7c7"/><path d="m109.676 42.997-1.461-31.374h.448l1.462 31.374z" fill="#65c7c7"/><path d="m109.228 42.997-1.461-31.374h.448l1.461 31.374z" fill="#64c7c7"/><path d="m108.779 42.997-1.461-31.374h.449l1.461 31.374z" fill="#63c6c6"/><path d="m108.331 42.997-1.461-31.374h.448l1.461 31.374z" fill="#60c6c6"/><path d="m107.882 42.997-1.461-31.374h.449l1.461 31.374z" fill="#60c6c5"/><path d="m107.434 42.997-1.461-31.374h.448l1.461 31.374z" fill="#5fc6c5"/><path d="m106.985 42.997-1.461-31.374h.449l1.461 31.374z" fill="#5fc6c5"/><path d="m106.537 42.997-1.461-31.374h.448l1.461 31.374z" fill="#5cc5c4"/><path d="m106.088 42.997-1.461-31.374h.449l1.461 31.374z" fill="#5ac5c4"/><path d="m105.64 42.997-1.461-31.374h.448l1.461 31.374z" fill="#5ac5c4"/><path d="m105.192 42.997-1.462-31.374h.449l1.461 31.374z" fill="#57c4c4"/><path d="m104.743 42.997-1.461-31.374h.448l1.462 31.374z" fill="#58c4c3"/><path d="m104.295 42.997-1.462-31.374h.449l1.461 31.374z" fill="#55c4c3"/><path d="m103.846 42.997-1.461-31.374h.448l1.462 31.374zm-.448 0-1.462-31.374h.449l1.461 31.374z" fill="#53c3c2"/><path d="m102.949 42.997-1.461-31.374h.448l1.462 31.374z" fill="#52c3c2"/><path d="m102.501 42.997-1.462-31.374h.449l1.461 31.374z" fill="#50c3c2"/><path d="m102.052 42.997-1.461-31.374h.448l1.462 31.374z" fill="#50c1c0"/><path d="m101.604 42.997-1.462-31.374h.449l1.461 31.374z" fill="#4dc2c1"/><path d="m101.155 42.997-1.461-31.374h.448l1.462 31.374z" fill="#4cc2c0"/><path d="m100.707 42.997-1.461-31.374h.448l1.461 31.374z" fill="#4bc0bf"/><path d="m100.258 42.997-1.461-31.374h.449l1.461 31.374z" fill="#47c1be"/><path d="m99.81 42.997-1.461-31.374h.448l1.461 31.374z" fill="#46c0be"/><path d="m99.361 42.997-1.461-31.374h.449l1.461 31.374z" fill="#43c0be"/><path d="m98.913 42.997-1.461-31.374h.448l1.461 31.374z" fill="#41c0be"/><path d="m98.464 42.997-1.461-31.374h.449l1.461 31.374z" fill="#40bfbd"/><path d="m98.016 42.997-1.461-31.374h.448l1.461 31.374z" fill="#3bbfbd"/><path d="m97.567 42.997-1.461-31.374h.449l1.461 31.374z" fill="#3cbfbc"/><path d="m97.119 42.997-1.461-31.374h.448l1.461 31.374z" fill="#39bfbc"/><path d="m96.67 42.997-1.461-31.374h.449l1.461 31.374z" fill="#34bebd"/><path d="m96.222 42.997-1.461-31.374h.448l1.461 31.374z" fill="#32bebb"/><path d="m95.774 42.997-1.462-31.374h.449l1.461 31.374z" fill="#2fbebc"/><path d="m95.325 42.997-1.461-31.374h.448l1.462 31.374z" fill="#2dbdbb"/><path d="m94.877 42.997-1.462-31.374h.449l1.461 31.374z" fill="#2bbdba"/><path d="m94.428 42.997-1.461-31.374h.448l1.462 31.374z" fill="#24bcbb"/><path d="m93.98 42.997-1.462-31.374h.449l1.461 31.374z" fill="#21bcb9"/><path d="m93.531 42.997-1.461-31.374h.448l1.462 31.374z" fill="#18bbb9"/><path d="m93.083 42.997-1.462-31.374h.449l1.461 31.374z" fill="#16bab9"/><path d="m92.634 42.997-1.461-31.374h.448l1.462 31.374z" fill="#11bab7"/><path d="m92.186 42.997-1.462-31.374h.449l1.461 31.374z" fill="#03bbb8"/><g fill="#06b8b6"><path d="m91.737 42.997-1.461-31.374h.448l1.462 31.374z"/><path d="m91.289 42.997-1.461-31.374h.448l1.461 31.374z"/><path d="m90.84 42.997-1.461-31.374h.449l1.461 31.374z"/></g><path d="m90.392 42.997-1.461-31.374h.448l1.461 31.374z" fill="#00b7b6"/><path d="m89.943 42.997-1.461-31.374h.449l1.461 31.374z" fill="#03b7b5"/><path d="m89.495 42.997-1.461-31.374h.448l1.461 31.374z" fill="#04b7b4"/><g fill="#00b6b5"><path d="m89.046 42.997-1.461-31.374h.449l1.461 31.374z"/><path d="m88.598 42.997-1.461-31.374h.448l1.461 31.374z"/><path d="m88.149 42.997-1.461-31.374h.449l1.461 31.374z"/></g><path d="m87.701 42.997-1.461-31.374h.448l1.461 31.374zm-.448 0-1.462-31.374h.449l1.461 31.374z" fill="#03b6b4"/><path d="m86.804 42.997-1.461-31.374h.448l1.462 31.374z" fill="#05b6b2"/><path d="m86.356 42.997-1.462-31.374h.449l1.461 31.374z" fill="#01b5b1"/><path d="m85.907 42.997-1.014-21.783v-9.591h.001l1.462 31.374zm-.448 0-.566-12.154v-9.629l1.014 21.783z" fill="#01b5b1"/><g fill="#00b4b1"><path d="m85.01 42.997-.117-2.525v-9.629l.566 12.154z"/><path d="m84.893 40.472.117 2.525h-.117z"/></g></g><path d="m28.573 11.456-16.135 16.256 16.255 16.135 13.752-.051-14.421-14.305 71.209-.264-6.241 6.283 6.876-.025 8.068-8.128-8.128-8.067-6.876.025 6.288 6.238-71.209.264 14.313-14.412z" fill="#244b5a"/></svg>