<svg height="1388.4746" viewBox="0 0 1388.4746 1388.4746" width="1388.4746" xmlns="http://www.w3.org/2000/svg"><circle cx="694.2373" cy="694.2373" fill="#64caa5" r="694.2373"/><g fill="#fff" transform="matrix(1.3713978 0 0 1.3713978 1806.824 -820.44829)"><path d="m-1061.1792 1292.7528c-4.1756-.3604-8.3132-1.3665-9.1947-2.2359-.8815-.8693-3.565-1.5806-5.9633-1.5806-10.2507 0-40.8386-14.1453-57.9959-26.8201-15.4101-11.3842-43.2553-43.7757-43.2553-50.3178 0-1.1854-.6989-2.1553-1.553-2.1553-.8542 0-2.0533-2.2775-2.6647-5.0612s-1.8105-5.0613-2.6647-5.0613-1.5531-1.5683-1.5531-3.4851-.9302-5.1433-2.0671-7.1701c-2.6309-4.6899-6.052-18.9102-8.1923-34.0527-1.7488-12.3719-.4692-49.394 1.8076-52.2997.7271-.9279 1.8813-5.0743 2.5649-9.2141.6836-4.1399 1.8815-8.695 2.6622-10.1226.7806-1.4275 2.9956-6.3915 4.9222-11.0309 5.2588-12.6642 8.0133-17.3643 18.2619-31.1618 15.554-20.9399 30.9483-33.9541 54.8012-46.32843 8.1717-4.2393 15.6464-7.7079 16.6103-7.7079.964 0 4.145-1.0928 7.0689-2.4286 6.1262-2.7986 22.7135-5.9651 37.3838-7.1364l10.1354-.8092 6.4002-12.9491c6.4577-13.0655 9.7222-18.9937 11.3113-20.541.4765-.4639 3.8928-5.367 7.5919-10.8958 6.5356-9.7683 35.20022-39.476 46.61845-48.3149 17.57756-13.6068 49.97565-29.7551 73.14212-36.4565 25.36485-7.3373 31.41657-8.0892 64.95294-8.0697 31.60125.018 49.96105 2.1834 63.26586 7.4606 1.85579.7361 7.54972 2.7058 12.65317 4.3772 37.46438 12.2697 79.09178 42.575 104.00509 75.717l7.71014 10.2567 33.97988.05c34.77463.051 36.97073.3478 61.07347 8.2596 29.39206 9.648 63.19594 33.6699 80.92357 57.50643 2.75982 3.7109 6.30362 8.1734 7.87511 9.9168 3.27029 3.628 19.91846 35.7353 19.91846 38.4144 0 .9751 1.09978 4.1652 2.44396 7.0892 3.18445 6.927 5.83499 20.1095 7.95202 39.5496 2.48914 22.8573-1.32322 56.5618-8.53172 75.4274-17.30091 45.2789-45.85298 78.2934-86.38314 99.8843-5.19386 2.7669-10.88778 5.4651-12.65317 5.996-1.76537.5309-7.38532 2.5893-12.48877 4.5743-10.39166 4.0418-20.54734 6.3127-37.95951 8.4882-11.22179 1.4021-458.96373 1.8162-474.91563.4393zm26.1498-100.6665c4.946-3.9512 5.0805-4.4605 5.9049-22.3456l.8435-18.3021 11.1314-.493 11.1314-.4931 6.7986 8.9285c3.73925 4.9106 8.34087 10.6733 10.22581 12.8059 2.94694 3.3341 12.98276 15.4232 15.5432 18.7233 1.51354 1.9507 10.19665 5.2362 13.83862 5.2362 1.95654 0 6.09635-1.9366 9.19962-4.3036 4.83995-3.6916 5.64228-5.3243 5.64228-11.4818 0-4.7956-1.26-8.8854-3.79595-12.3212-5.08559-6.8903-15.03772-19.1136-17.98805-22.0932-2.56125-2.5867-2.30331-2.9246 5.70835-7.477 6.88265-3.9108 13.59997-13.6261 16.49085-23.8506 3.78751-13.396 3.71647-18.6551-.4142-30.6611-4.48913-13.0479-9.65312-19.4401-20.5076-25.3851l-9.01746-4.9389-39.29167-.5578c-39.131-.5555-39.3085-.5418-43.4134 3.3509l-4.1217 3.9087-.029 62.5217c-.031 66.6846-.1153 65.9788 8.435 70.6632 6.3764 3.4933 12.0985 3.0293 17.6857-1.4343zm322.81762.781c18.81115-6.8757 28.7103-19.3794 30.21858-38.1692 1.47109-18.3267-6.17686-31.182-23.21017-39.0134-5.10345-2.3464-10.51411-4.8894-12.0237-5.6511-1.50959-.7618-5.68514-1.8842-9.27899-2.4944-16.10423-2.7342-29.32325-9.4696-29.28416-14.921.0376-5.2513 1.86848-7.3735 8.89298-10.3085 7.56375-3.1604 16.58102-1.4286 32.41488 6.2253 9.11382 4.4055 10.72769 4.6968 16.19543 2.9227 6.89861-2.2384 11.64154-8.9094 11.64154-16.3739 0-9.9785-12.33271-18.0455-35.72015-23.3648-14.78737-3.3633-33.96541-1.54-45.26014 4.3031-8.40531 4.3483-16.61646 14.0123-20.31998 23.9154-6.71664 17.9602-1.33676 35.8124 13.9579 46.3171 7.25953 4.986 12.89908 7.0607 41.79096 15.3739 11.75446 3.3822 15.1838 6.3755 15.1838 13.2535 0 4.5412-.95779 5.9056-5.73801 8.174-3.1559 1.4975-8.16359 2.7228-11.12819 2.7228-8.10145 0-23.27827-4.8798-32.14498-10.3355-10.14463-6.242-17.57419-6.3401-23.86312-.3149-6.09024 5.8348-6.49883 15.2179-.93586 21.4915 4.39578 4.9573 25.62276 16.1401 30.70908 16.1782 1.89996.014 4.59327.7617 5.98512 1.6612 4.68732 3.0292 32.12513 1.9871 41.91718-1.592zm108.07127.3267c2.84472-1.6238 5.94301-5.1534 6.88508-7.8436 1.00316-2.8646 1.71287-24.628 1.71287-52.5254v-47.634l16.79521-.6746c14.64687-.5883 17.32046-1.168 20.90137-4.5321 2.25839-2.1217 4.54355-6.0446 5.07816-8.7176 1.22519-6.126-1.68804-14.7107-5.72531-16.8714-1.81953-.9738-24.21876-1.6515-54.58468-1.6515h-51.49886l-4.286 4.6223c-5.79659 6.2514-5.59582 13.3369.58786 20.7478l4.87387 5.8411 17.0583.5798 17.05829.5799.0597 49.1893c.0638 52.49.39732 54.8162 8.49743 59.263 5.75552 3.1596 10.5883 3.051 16.58662-.373zm-208.27557-2.9524c6.61002-8.6148 5.06969-17.8867-3.98518-23.9888-5.42945-3.6589-7.23282-3.8482-36.67192-3.8482h-30.96167v-11.8096-11.8096h27.96675 27.96676l4.93148-4.9315c3.35832-3.3583 4.9315-6.6228 4.9315-10.2335 0-14.0512-6.79572-16.8897-40.43596-16.8897h-25.36053v-11.8096-11.8097h31.47368c31.14005 0 31.53349-.046 37.11597-4.3035 4.79466-3.6571 5.64229-5.3515 5.64229-11.2792 0-4.84-1.12303-8.1709-3.66826-10.8802-3.66048-3.8964-3.76606-3.9047-49.67507-3.9047h-46.00679l-4.73358 4.0698-4.73357 4.0698-.53698 59.6178c-.48271 53.5926-.24619 60.1656 2.34038 65.0375 1.58254 2.9808 4.86094 6.1705 7.28534 7.0884 2.59353.9818 22.95568 1.5287 49.4672 1.3287 42.85846-.3234 45.18565-.5048 47.64816-3.7142z" stroke-width="10.1225"/><path d="m-1027.5429 1119.1121c-.6869-.1972-.7381-1.3672-.7381-16.8734v-16.6615l1.2329-1.2329 1.2329-1.2329h15.4993c13.1106 0 15.60597.097 16.19096.6259.38037.3442 2.19839.8492 4.04005 1.1221 2.40052.3558 3.64698.7662 4.4029 1.4498.57994.5245 1.71873 1.1221 2.53064 1.328 1.06382.2699 1.51473.6393 1.6141 1.3224.0758.5213.57063 1.145 1.09951 1.386.77367.3525 1.06296 1.0052 1.48016 3.3398.2852 1.5958.88176 3.3633 1.32568 3.9277.64645.8218.80713 1.7169.80713 4.4963 0 3.0989-.10584 3.5682-.98943 4.3871-.67127.6221-1.08095 1.6069-1.27407 3.0627-.23738 1.7895-.45049 2.1873-1.28367 2.3964-.6022.1512-1.10452.6711-1.2646 1.3089-.1704.6789-.56151 1.0581-1.09135 1.0581-.45418 0-1.12332.4541-1.48697 1.0091-.42215.6443-1.37867 1.1867-2.6458 1.5004-1.09961.2722-2.30292.9037-2.69841 1.4161-.71356.9245-.71958.9248-18.97973 1.0003-10.0463.041-18.5981-.02-19.0041-.1364z" stroke-width="2.53063"/></g></svg>